<svg xmlns="http://www.w3.org/2000/svg" viewBox="0 0 256.3 256" enable-background="new 0 0 256.3 256"><style type="text/css">.st0{fill:#4F9BD5;}</style><path class="st0" d="M40.4 109.5s-1.8-4.4-1.8-9.9 1.8-9.9 1.8-9.9c-.3 0-37.2 9.9-37.2 9.9s36.9 9.9 37.2 9.9zM215.4 89.7s1.8 4.4 1.8 9.9-1.8 9.9-1.8 9.9c.3 0 37.2-9.9 37.2-9.9s-36.9-9.9-37.2-9.9z"/><circle class="st0" cx="89.7" cy="99" r="11.2"/><path class="st0" d="M196.1 85.3c1.4 0 2.6 1.2 2.6 2.6v23.5c0 1.4-1.2 2.6-2.6 2.6h-136.4c-1.4 0-2.6-1.2-2.6-2.6v-23.5c0-1.4 1.2-2.6 2.6-2.6h136.4m0-13.4h-136.4c-8.8 0-16 7.2-16 16v23.5c0 8.8 7.2 16 16 16h136.3c8.8 0 16-7.2 16-16v-23.5c0-8.9-7.1-16-15.9-16zM126.9 167.5c-20.2 0-37.3 30.5-37.3 66.6 0 4.1.2 8.1.7 12.1 10.4 3.3 23 5.2 36.6 5.2s26.2-1.9 36.6-5.2c.4-3.9.7-8 .7-12.1 0-36-17.1-66.6-37.3-66.6zm-22.5 65.1c0 2.4-2 4.4-4.4 4.4-2.4 0-4.4-2-4.4-4.4v-15.3c0-2.4 2-4.4 4.4-4.4 2.4 0 4.4 2 4.4 4.4v15.3zm17.7 0c0 2.4-2 4.4-4.4 4.4-2.4 0-4.4-2-4.4-4.4v-15.3c0-2.4 2-4.4 4.4-4.4 2.4 0 4.4 2 4.4 4.4v15.3zm17.7 0c0 2.4-2 4.4-4.4 4.4-2.4 0-4.4-2-4.4-4.4v-15.3c0-2.4 2-4.4 4.4-4.4s4.4 2 4.4 4.4v15.3zm17.7 0c0 2.4-2 4.4-4.4 4.4-2.4 0-4.4-2-4.4-4.4v-15.3c0-2.4 2-4.4 4.4-4.4 2.4 0 4.4 2 4.4 4.4v15.3zM63.4 115.9v11.4h92c1.7 0 3.1 1.4 3.1 3.1 0 1.7-1.4 3.1-3.1 3.1h-92v89.6c0 7.6 6.8 14.5 17.7 19.6-.2-2.8-.3-5.7-.3-8.6 0-42.3 20.2-75.4 46.1-75.4 25.8 0 46.1 33.1 46.1 75.4 0 2.9-.1 5.7-.3 8.6 11-5.1 17.7-12 17.7-19.6v-107.2h-127zM126.9 58.3c-2.2 0-4-1.8-4-4s1.8-4 4-4h63c-.7-2.2-1.5-4.4-2.5-6.5h-37.4c-3.7 0-6.7-3-6.7-6.7s3-6.7 6.7-6.7h29.7c-12.1-16.4-31.2-26.7-52.8-26.7-33.8 0-61.7 25.3-65.9 59.7h131.7c-.2-1.7-.5-3.4-.9-5.1h-64.9zm4.6-28.2c3.9 0 7 3.1 7 7s-3.1 7-7 7-7-3.1-7-7 3.2-7 7-7z"/></svg>